<svg width="20" height="20" viewBox="0 0 20 20" fill="none" xmlns="http://www.w3.org/2000/svg">
<path d="M19.9998 5.24023H19.0498V7.14023H19.9998V5.24023Z" fill="#396EEB"/>
<path d="M17.1437 9.04688H18.0937V12.8594H11.4312V13.8125H12.3812V14.7625H11.4312V15.7188H18.0937V17.625H19.0499V7.14062H17.1437V9.04688ZM14.2874 14.7594H13.3312V13.8125H14.2874V14.7594ZM18.0937 14.7594H16.1874V13.8125H18.0937V14.7594Z" fill="#396EEB"/>
<path d="M18.0938 6.19043V5.24043H19.05V4.28418H17.1438V5.24043H16.1875V7.14043H17.1438V6.19043H18.0938Z" fill="#396EEB"/>
<path d="M10.475 17.6213V16.665H9.525V17.6213H1.90625V18.5713H18.0938V17.6213H10.475Z" fill="#396EEB"/>
<path d="M13.3313 9.99688V10.9531H14.2876V11.9031H15.2376V10.9531H16.1876V9.99688H17.1438V9.04688H16.1876V8.09687H15.2376V7.14062H14.2876V8.09687H13.3313V9.04688H12.3813V9.99688H13.3313Z" fill="#396EEB"/>
<path d="M12.3812 8.09668H11.4312V9.04668H12.3812V8.09668Z" fill="#396EEB"/>
<path d="M12.3812 2.37793H11.4312V5.24043H12.3812V2.37793Z" fill="#396EEB"/>
<path d="M11.4313 15.7148H10.4751V16.6648H11.4313V15.7148Z" fill="#396EEB"/>
<path d="M11.4313 11.9023H10.4751V12.8586H11.4313V11.9023Z" fill="#396EEB"/>
<path d="M11.4313 7.14062H10.4751V8.09687H11.4313V7.14062Z" fill="#396EEB"/>
<path d="M10.4749 13.8086H9.5249V14.7586H10.4749V13.8086Z" fill="#396EEB"/>
<path d="M10.4749 10.9531H9.5249V11.9031H10.4749V10.9531Z" fill="#396EEB"/>
<path d="M10.4751 6.19023H11.4313V5.24023H8.56885V6.19023H9.5251V7.14023H10.4751V6.19023Z" fill="#396EEB"/>
<path d="M10.4749 3.33398H9.5249V4.28398H10.4749V3.33398Z" fill="#396EEB"/>
<path d="M11.4313 1.42773H8.56885V2.37773H11.4313V1.42773Z" fill="#396EEB"/>
<path d="M9.5251 15.7148H8.56885V16.6648H9.5251V15.7148Z" fill="#396EEB"/>
<path d="M9.5251 11.9023H8.56885V12.8586H9.5251V11.9023Z" fill="#396EEB"/>
<path d="M9.5251 7.14062H8.56885V8.09687H9.5251V7.14062Z" fill="#396EEB"/>
<path d="M8.56865 8.09668H7.61865V9.04668H8.56865V8.09668Z" fill="#396EEB"/>
<path d="M8.56865 2.37793H7.61865V5.24043H8.56865V2.37793Z" fill="#396EEB"/>
<path d="M3.8127 9.99688V10.9531H4.7627V11.9031H5.7127V10.9531H6.66895V9.99688H7.61895V9.04688H6.66895V8.09687H5.7127V7.14062H4.7627V8.09687H3.8127V9.04688H2.85645V9.99688H3.8127Z" fill="#396EEB"/>
<path d="M1.90645 6.19043H2.85645V7.14043H3.8127V5.24043H2.85645V4.28418H0.950195V5.24043H1.90645V6.19043Z" fill="#396EEB"/>
<path d="M8.56895 15.7154V14.7592H7.61895V13.8123H8.56895V12.8623H1.90645V9.0498H2.85645V7.14355H0.950195V17.6248H1.90645V15.7186L8.56895 15.7154ZM5.7127 13.8123H6.66895V14.7623H5.7127V13.8123ZM1.90645 13.8123H3.8127V14.7623H1.90645V13.8123Z" fill="#396EEB"/>
<path d="M0.95 5.24023H0V7.14023H0.95V5.24023Z" fill="#396EEB"/>
</svg>
