<svg width="20" height="20" viewBox="0 0 20 20" fill="none" xmlns="http://www.w3.org/2000/svg">
<g clip-path="url(#clip0_1423_33432)">
<path d="M19.9998 4.7627H19.0498V5.7127H19.9998V4.7627Z" fill="#E24A57"/>
<path d="M17.1437 9.52539V10.4754H15.2437V11.4316H17.1437V17.1441H13.3374V18.0941H17.1437V19.0504H19.9999V9.52539H17.1437Z" fill="#E24A57"/>
<path d="M19.0501 5.71289H18.1001V6.66914H19.0501V5.71289Z" fill="#E24A57"/>
<path d="M18.0998 4.7627H17.1436V5.7127H18.0998V4.7627Z" fill="#E24A57"/>
<path d="M17.1438 5.71289H16.1938V6.66914H17.1438V5.71289Z" fill="#E24A57"/>
<path d="M17.1438 0.956055H16.1938V1.90605H17.1438V0.956055Z" fill="#E24A57"/>
<path d="M16.1937 4.7627H15.2437V5.7127H16.1937V4.7627Z" fill="#E24A57"/>
<path d="M15.2438 9.52539H14.2876V10.4754H15.2438V9.52539Z" fill="#E24A57"/>
<path d="M14.2874 8.5752H13.3374V9.5252H14.2874V8.5752Z" fill="#E24A57"/>
<path d="M13.3377 14.2871H12.3814V16.1934H10.4814V18.0934H11.4314V17.1434H13.3377V14.2871Z" fill="#E24A57"/>
<path d="M12.3812 13.3379H11.4312V14.2879H12.3812V13.3379Z" fill="#E24A57"/>
<path d="M12.3812 1.90625H11.4312V2.85625H12.3812V1.90625Z" fill="#E24A57"/>
<path d="M11.4314 12.3809H10.4814V13.3371H11.4314V12.3809Z" fill="#E24A57"/>
<path d="M11.4314 10.4746H10.4814V11.4309H11.4314V10.4746Z" fill="#E24A57"/>
<path d="M13.3374 7.61914H9.5249V8.57539H13.3374V7.61914Z" fill="#E24A57"/>
<path d="M11.4314 2.85645H10.4814V3.8127H11.4314V2.85645Z" fill="#E24A57"/>
<path d="M11.4314 0.956055H10.4814V1.90605H11.4314V0.956055Z" fill="#E24A57"/>
<path d="M10.4812 15.2373H9.5249V16.1936H10.4812V15.2373Z" fill="#E24A57"/>
<path d="M10.4812 11.4316H9.5249V12.3816H10.4812V11.4316Z" fill="#E24A57"/>
<path d="M10.4812 1.90625H9.5249V2.85625H10.4812V1.90625Z" fill="#E24A57"/>
<path d="M8.575 19.05H5.71875V20H9.525V19.05H10.4813V18.0938H8.575V19.05Z" fill="#E24A57"/>
<path d="M9.5252 8.5752H8.5752V9.5252H9.5252V8.5752Z" fill="#E24A57"/>
<path d="M8.5749 17.1436H7.61865V18.0936H8.5749V17.1436Z" fill="#E24A57"/>
<path d="M9.5249 12.3809H7.61865V13.3371H9.5249V12.3809Z" fill="#E24A57"/>
<path d="M8.5749 9.52539H7.61865V10.4754H8.5749V9.52539Z" fill="#E24A57"/>
<path d="M8.5752 7.61914H6.66895V8.57539H8.5752V7.61914Z" fill="#E24A57"/>
<path d="M7.61895 16.1934H6.66895V17.1434H7.61895V16.1934Z" fill="#E24A57"/>
<path d="M7.61895 10.4746H6.66895V12.3809H7.61895V10.4746Z" fill="#E24A57"/>
<path d="M7.61895 3.8125H6.66895V4.7625H7.61895V3.8125Z" fill="#E24A57"/>
<path d="M6.66875 8.5752H5.71875V9.5252H6.66875V8.5752Z" fill="#E24A57"/>
<path d="M5.71895 18.0938H4.7627V19.05H5.71895V18.0938Z" fill="#E24A57"/>
<path d="M5.71895 9.52539H4.7627V10.4754H5.71895V9.52539Z" fill="#E24A57"/>
<path d="M2.8625 17.1441V11.4316H4.7625V10.4754H2.8625V9.52539H0V19.0504H2.8625V18.0941H4.7625V17.1441H2.8625Z" fill="#E24A57"/>
<path d="M4.7625 0H3.8125V0.95625H4.7625V0Z" fill="#E24A57"/>
<path d="M2.8623 7.61895V6.66895H3.8123V5.7127H2.8623V4.7627H1.90605V5.7127H0.956055V6.66895H1.90605V7.61895H2.8623Z" fill="#E24A57"/>
</g>
<defs>
<clipPath id="clip0_1423_33432">
<rect width="20" height="20" fill="white"/>
</clipPath>
</defs>
</svg>
