<svg width="20" height="20" viewBox="0 0 20 20" fill="none" xmlns="http://www.w3.org/2000/svg">
<path d="M18.5721 0.950195H17.6221V1.9002H18.5721V0.950195Z" fill="#E24A57"/>
<path d="M18.5718 3.80664H16.6655V4.76289H18.5718V3.80664Z" fill="#E24A57"/>
<path d="M17.6218 1.90039H16.6655V2.85664H17.6218V1.90039Z" fill="#E24A57"/>
<path d="M17.6221 0H15.7158V0.95H17.6221V0Z" fill="#E24A57"/>
<path d="M16.6658 2.85645H15.7158V3.80645H16.6658V2.85645Z" fill="#E24A57"/>
<path d="M14.7596 4.7627H13.8096V5.7127H14.7596V4.7627Z" fill="#E24A57"/>
<path d="M14.7594 7.61914H12.8594V8.56914H14.7594V7.61914Z" fill="#E24A57"/>
<path d="M13.8094 5.71289H12.8594V6.66289H13.8094V5.71289Z" fill="#E24A57"/>
<path d="M13.8096 3.80664H11.9033V4.76289H13.8096V3.80664Z" fill="#E24A57"/>
<path d="M12.8596 6.66211H11.9033V7.61836H12.8596V6.66211Z" fill="#E24A57"/>
<path d="M10.0031 9.51855H9.04688V15.2373H10.0031V9.51855Z" fill="#E24A57"/>
<path d="M9.04717 8.56836H8.09717V9.51836H9.04717V8.56836Z" fill="#E24A57"/>
<path d="M9.04717 1.90039H8.09717V5.71289H9.04717V1.90039Z" fill="#E24A57"/>
<path d="M8.09717 11.4248H7.14092V19.0436H6.19092V15.2373H5.24092V19.0436H4.28467V11.4248H3.33467V15.2373H2.37842V16.1873H3.33467V19.9998H8.09717V16.1873H9.04717V15.2373H8.09717V11.4248Z" fill="#E24A57"/>
<path d="M8.09687 7.61914H7.14062V8.56914H8.09687V7.61914Z" fill="#E24A57"/>
<path d="M8.09687 5.71289H7.14062V6.66289H8.09687V5.71289Z" fill="#E24A57"/>
<path d="M8.09687 0.950195H7.14062V1.9002H8.09687V0.950195Z" fill="#E24A57"/>
<path d="M7.14092 6.66211H4.28467V7.61836H7.14092V6.66211Z" fill="#E24A57"/>
<path d="M7.14092 0H4.28467V0.95H7.14092V0Z" fill="#E24A57"/>
<path d="M4.28447 7.61914H3.33447V8.56914H4.28447V7.61914Z" fill="#E24A57"/>
<path d="M4.28447 5.71289H3.33447V6.66289H4.28447V5.71289Z" fill="#E24A57"/>
<path d="M4.28447 0.950195H3.33447V1.9002H4.28447V0.950195Z" fill="#E24A57"/>
<path d="M3.33467 8.56836H2.37842V9.51836H3.33467V8.56836Z" fill="#E24A57"/>
<path d="M3.33467 1.90039H2.37842V5.71289H3.33467V1.90039Z" fill="#E24A57"/>
<path d="M2.37822 9.51855H1.42822V15.2373H2.37822V9.51855Z" fill="#E24A57"/>
</svg>
