<svg width="24" height="24" viewBox="0 0 24 24" fill="none" xmlns="http://www.w3.org/2000/svg">
<path fill-rule="evenodd" clip-rule="evenodd" d="M9.73601 5.99208C8.15646 4.94506 5.89709 5.17033 4.60656 6.83367L4.29721 7.23239C2.81006 9.14916 3.02479 11.8826 4.79299 13.5436L11.7456 20.0749C11.8726 20.1942 11.9419 20.2585 11.9954 20.2997C11.997 20.3009 11.9985 20.3021 12 20.3032C12.0014 20.3021 12.0029 20.3009 12.0045 20.2997C12.0581 20.2585 12.1273 20.1942 12.2544 20.0749L19.207 13.5436C20.9752 11.8826 21.1899 9.14916 19.7027 7.23239L19.3934 6.83367C18.0338 5.08135 15.599 4.92466 14.0157 6.17169L13.397 5.38609C15.3891 3.81712 18.4627 4.00274 20.1835 6.22067L20.4928 6.61939C22.2962 8.94369 22.0358 12.2583 19.8916 14.2725L12.939 20.8037L12.9251 20.8168C12.8174 20.9179 12.712 21.017 12.6147 21.092C12.5065 21.1753 12.3697 21.2603 12.1926 21.2951C12.0654 21.3201 11.9346 21.3201 11.8074 21.2951C11.6302 21.2603 11.4934 21.1753 11.3852 21.092C11.288 21.017 11.1825 20.9179 11.0749 20.8168L11.0609 20.8037L4.10832 14.2725C1.96417 12.2583 1.70379 8.94369 3.50712 6.6194L3.81648 6.22067C5.58604 3.93991 8.78608 3.80779 10.7706 5.52445L11.132 5.8371L10.836 6.21229L9.80033 7.52506C9.46305 7.95257 9.2438 8.23236 9.11184 8.45838C8.98706 8.67212 8.98699 8.76152 8.99717 8.81706C9.00734 8.87259 9.0391 8.95616 9.23155 9.11178C9.43507 9.27634 9.73927 9.46022 10.2062 9.74038L11.4587 10.4918L11.4877 10.5093C11.885 10.7476 12.2264 10.9524 12.476 11.1528C12.7431 11.3672 12.9678 11.6244 13.0497 11.9886C13.1316 12.3528 13.0386 12.6814 12.889 12.9895C12.7492 13.2775 12.5284 13.6086 12.2713 13.9942L12.2525 14.0223L11.416 15.2771L10.584 14.7224L11.4205 13.4676C11.7016 13.0459 11.8831 12.7718 11.9894 12.5527C12.0895 12.3466 12.0861 12.2615 12.074 12.208C12.062 12.1544 12.0286 12.076 11.85 11.9327C11.6601 11.7802 11.3787 11.6101 10.9442 11.3493L9.69171 10.5979L9.66133 10.5796C9.23325 10.3228 8.86746 10.1034 8.6028 9.88938C8.32084 9.6614 8.08484 9.38642 8.01354 8.99727C7.94224 8.60813 8.06543 8.26734 8.24824 7.9542C8.41984 7.66028 8.68407 7.3254 8.99328 6.93351L9.01524 6.90567L9.73601 5.99208Z" fill="#EF4444"/>
</svg>
