<svg width="20" height="20" viewBox="0 0 20 20" fill="none" xmlns="http://www.w3.org/2000/svg">
<path d="M12.8596 4.7627H13.8096V5.7127H14.7596V6.66269H15.7158V5.7127H16.6658V4.7627H17.6221V3.80645H18.5721V1.9002H17.6221V0.950195H16.6658V1.9002H15.7158V2.85645H14.7596V1.9002H13.8096V0.950195H12.8596V1.9002H11.9033V3.80645H12.8596V4.7627Z" fill="#396EEB"/>
<path d="M10.0031 9.51855H9.04688V15.2373H10.0031V9.51855Z" fill="#396EEB"/>
<path d="M9.04717 8.56836H8.09717V9.51836H9.04717V8.56836Z" fill="#396EEB"/>
<path d="M8.09717 11.4248H7.14092V13.3311H4.28467V11.4248H3.33467V15.2373H2.37842V16.1873H3.33467V19.9998H5.24092V17.1373H6.19092V19.9998H8.09717V16.1873H9.04717V15.2373H8.09717V11.4248Z" fill="#396EEB"/>
<path d="M8.09687 7.61914H7.14062V8.56914H8.09687V7.61914Z" fill="#396EEB"/>
<path d="M8.09687 5.71289H7.14062V6.66289H8.09687V5.71289Z" fill="#396EEB"/>
<path d="M6.19072 8.56836H5.24072V11.4246H6.19072V8.56836Z" fill="#396EEB"/>
<path d="M7.14092 6.66211H4.28467V7.61836H7.14092V6.66211Z" fill="#396EEB"/>
<path d="M4.28447 7.61914H3.33447V8.56914H4.28447V7.61914Z" fill="#396EEB"/>
<path d="M4.28447 5.71289H3.33447V6.66289H4.28447V5.71289Z" fill="#396EEB"/>
<path d="M3.33467 8.56836H2.37842V9.51836H3.33467V8.56836Z" fill="#396EEB"/>
<path d="M4.28467 3.80625V2.85625H7.14092V3.80625H8.09717V5.7125H9.04717V1.9H8.09717V0.95H7.14092V0H4.28467V0.95H3.33467V1.9H2.37842V5.7125H3.33467V3.80625H4.28467Z" fill="#396EEB"/>
<path d="M2.37822 9.51855H1.42822V15.2373H2.37822V9.51855Z" fill="#396EEB"/>
</svg>
