<svg width="20" height="20" viewBox="0 0 20 20" fill="none" xmlns="http://www.w3.org/2000/svg">
<g clip-path="url(#clip0_1423_33522)">
<path d="M19.05 15.2379H20V9.52539H19.05V10.4816H18.0938V11.4316H19.05V15.2379Z" fill="#396EEB"/>
<path d="M19.05 15.2373H18.0938V16.1936H19.05V15.2373Z" fill="#396EEB"/>
<path d="M18.0936 16.1934H17.1436V17.1434H18.0936V16.1934Z" fill="#396EEB"/>
<path d="M18.0936 13.3379H17.1436V14.2879H18.0936V13.3379Z" fill="#396EEB"/>
<path d="M17.1436 14.2871H15.2373V15.2371H17.1436V14.2871Z" fill="#396EEB"/>
<path d="M17.1436 17.1436H15.2373V18.0998H17.1436V17.1436Z" fill="#396EEB"/>
<path d="M18.0938 11.4316H14.2876V12.3816H18.0938V11.4316Z" fill="#396EEB"/>
<path d="M17.1438 2.85625H18.0938V1.90625H19.0501V0.95625H18.0938V0H17.1438V0.95625H16.1938V0H15.2376V0.95625H14.2876V1.90625H15.2376V2.85625H16.1938V3.8125H17.1438V2.85625Z" fill="#396EEB"/>
<path d="M15.2373 15.2373H13.3311V16.1936H15.2373V15.2373Z" fill="#396EEB"/>
<path d="M15.2374 18.0996H11.4312V19.0496H15.2374V18.0996Z" fill="#396EEB"/>
<path d="M14.2876 12.3809H12.3813V13.3371H14.2876V12.3809Z" fill="#396EEB"/>
<path d="M8.5749 12.3814V13.3377H5.7124V14.2877H8.5749V20.0002H9.5249V17.1439H10.4749V18.1002H11.4312V17.1439H13.3312V16.1939H10.4749V15.2377H9.5249V13.3377H10.4749V8.5752H9.5249V12.3814H8.5749Z" fill="#396EEB"/>
<path d="M12.3812 13.3379H11.4312V14.2879H12.3812V13.3379Z" fill="#396EEB"/>
<path d="M14.2876 10.4814V9.52519H15.2376V8.5752H16.1938V7.61894H17.1438V5.71895H16.1938V4.7627H14.2876V5.71895H13.3313V4.7627H11.4313V5.71895H10.4751V7.61894H11.4313V8.5752H12.3813V9.52519H13.3313V10.4814H14.2876Z" fill="#396EEB"/>
<path d="M11.4313 14.2871H10.4751V15.2371H11.4313V14.2871Z" fill="#396EEB"/>
<path d="M9.5252 7.61914H8.5752V8.57539H9.5252V7.61914Z" fill="#396EEB"/>
<path d="M8.5749 10.4814H7.61865V12.3814H8.5749V10.4814Z" fill="#396EEB"/>
<path d="M8.5749 6.66895H7.61865V7.61895H8.5749V6.66895Z" fill="#396EEB"/>
<path d="M7.61895 9.52539H6.66895V10.4816H7.61895V9.52539Z" fill="#396EEB"/>
<path d="M6.66895 8.5752H4.7627V9.5252H6.66895V8.5752Z" fill="#396EEB"/>
<path d="M7.61865 5.71875H5.7124V6.66875H7.61865V5.71875Z" fill="#396EEB"/>
<path d="M5.7125 12.3809H3.8125V13.3371H5.7125V12.3809Z" fill="#396EEB"/>
<path d="M4.7625 7.61914H3.8125V8.57539H4.7625V7.61914Z" fill="#396EEB"/>
<path d="M3.8127 11.4316H2.85645V12.3816H3.8127V11.4316Z" fill="#396EEB"/>
<path d="M3.8127 6.66895H2.85645V7.61895H3.8127V6.66895Z" fill="#396EEB"/>
<path d="M5.7127 4.7627H2.85645V5.71895H5.7127V4.7627Z" fill="#396EEB"/>
<path d="M2.85625 9.52539H1.90625V11.4316H2.85625V9.52539Z" fill="#396EEB"/>
<path d="M2.85625 3.8125H1.90625V4.7625H2.85625V3.8125Z" fill="#396EEB"/>
<path d="M1.90645 7.61914H0.950195V9.52539H1.90645V7.61914Z" fill="#396EEB"/>
<path d="M0.95 3.8127H1.90625V2.85645H0V7.61895H0.95V3.8127Z" fill="#396EEB"/>
</g>
<defs>
<clipPath id="clip0_1423_33522">
<rect width="20" height="20" fill="white"/>
</clipPath>
</defs>
</svg>
